<svg width="141" height="135" viewBox="0 0 141 135" fill="none" xmlns="http://www.w3.org/2000/svg">
<g clip-path="url(#clip0_26_14)">
<path d="M16.0812 60.4994L7.64885 67.1076L0 57.7741L70.5187 -0.09375L141 57.7741L133.444 67.1076L125.441 60.8915V134.944H112.923V129.717C112.923 104.852 112.923 79.9692 112.923 55.0487C113.027 53.6153 112.767 52.1789 112.167 50.8733C111.567 49.5676 110.646 48.4353 109.49 47.5819C97.7 38.0803 85.891 28.4668 74.2498 18.5733C71.4514 16.2212 69.6978 16.1279 66.7875 18.5733C55.1463 28.3735 43.3373 38.0057 31.4722 47.5259C30.2995 48.3688 29.3605 49.4965 28.7437 50.8027C28.1268 52.109 27.8524 53.551 27.9463 54.9927C28.0769 79.7265 27.9463 104.442 27.9463 129.157V135H16.0812V60.4994Z" fill="#00235C"/>
</g>
<defs>
<clipPath id="clip0_26_14">
<rect width="141" height="135" fill="white"/>
</clipPath>
</defs>
</svg>
