<svg width="177" height="177" viewBox="0 0 177 177" fill="none" xmlns="http://www.w3.org/2000/svg">
<path d="M174.048 163.761L134.32 123.997C145.034 110.946 151.434 94.2283 151.434 76.0361C151.434 34.2229 117.53 0.319336 75.7168 0.319336C33.9036 0.319336 0 34.2229 0 76.0361C0 117.849 33.9036 151.753 75.7168 151.753C93.9808 151.753 110.735 145.281 123.822 134.496L163.55 174.223C168.188 178.466 172.538 175.733 174.048 174.223C177.068 171.239 177.068 166.745 174.048 163.761ZM14.7766 76.0361C14.7766 42.3842 42.0649 15.096 75.7168 15.096C109.369 15.096 136.693 42.3842 136.693 76.0361C136.693 109.688 109.405 136.976 75.7527 136.976C42.1008 136.976 14.7766 109.688 14.7766 76.0361Z" fill="#00235C"/>
</svg>
